<svg width="220" height="30" viewBox="0 0 220 30" fill="none" xmlns="http://www.w3.org/2000/svg">
<path d="M37.6007 14.6782C37.6007 17.8455 39.584 20.0063 42.5736 20.0063C44.2313 20.0063 45.4745 19.3403 46.2145 18.1415V19.5327C46.2145 21.442 44.8529 22.6556 42.7661 22.6556C41.4192 22.6556 40.3388 22.2264 39.3028 21.4568L38.2816 23.1736C39.6284 24.0912 41.138 24.624 42.8697 24.624C46.3181 24.624 48.5826 22.6408 48.5826 19.4735V9.52769H46.2145V11.3037C45.4597 10.1049 44.1869 9.42409 42.4848 9.43889C39.5692 9.45369 37.6007 11.5701 37.6007 14.6782ZM39.8356 14.7374C39.8652 12.769 41.1676 11.3629 43.0473 11.3629C44.9121 11.3629 46.2145 12.7542 46.2145 14.7374C46.2145 16.7355 44.9121 18.1415 43.0473 18.1415C41.138 18.1415 39.8652 16.7355 39.8356 14.7374ZM50.847 13.2722C50.847 17.4311 54.1327 20.6427 58.3804 20.6427C60.4376 20.6427 62.5245 19.7103 64.0045 18.2599L62.5541 16.6466C61.4441 17.7123 59.964 18.3635 58.5136 18.3635C55.6127 18.3635 53.3335 16.1138 53.3335 13.2574C53.3335 10.3861 55.6127 8.15126 58.5136 8.15126C59.9788 8.15126 61.4885 8.86168 62.5541 10.0013L63.9749 8.21046C62.5689 6.83403 60.5116 5.97561 58.4692 5.97561C54.1771 5.97561 50.847 9.14288 50.847 13.2722ZM65.4254 17.2239C65.4254 19.1775 66.9202 20.6427 69.303 20.6427C70.9015 20.6427 72.1595 20.1691 72.9439 19.1923V20.5391H75.2972L75.2676 13.3166C75.2528 10.8893 73.6543 9.43889 70.8127 9.43889C68.7258 9.43889 67.601 9.9125 66.0766 10.8301L67.0386 12.4878C68.1486 11.7329 69.2438 11.3629 70.2947 11.3629C72.0411 11.3629 72.9291 12.1918 72.9291 13.583V13.9086H69.5991C66.935 13.9382 65.4254 15.2258 65.4254 17.2239ZM67.6602 17.1203C67.6602 16.0694 68.3854 15.655 69.9395 15.655H72.9291V16.6763C72.8107 17.8751 71.4935 18.7631 69.8063 18.7631C68.4742 18.7631 67.6602 18.1267 67.6602 17.1203ZM78.5829 20.5391H80.9657V5.1764H78.5829V20.5391ZM83.5558 15.0482C83.5558 18.3635 85.7906 20.6279 89.1947 20.6279C91.1039 20.6279 92.6728 19.9471 93.7532 18.7631L92.4952 17.4163C91.6811 18.2451 90.5859 18.7039 89.3871 18.7039C87.6406 18.7039 86.3382 17.6383 85.9682 15.951H94.286C94.582 11.9697 93.0132 9.43889 89.1355 9.43889C85.8646 9.45369 83.5558 11.7181 83.5558 15.0482ZM85.9238 14.2046C86.1902 12.4434 87.4186 11.3481 89.1503 11.3481C90.9559 11.3481 92.1399 12.4286 92.2139 14.2046H85.9238ZM96.7725 20.5391H99.1553V14.6782C99.3329 12.9614 100.473 11.7033 102.293 11.6737C103.951 11.6737 104.942 12.695 104.942 14.3526V20.5391H107.325V13.6866C107.325 11.0521 105.786 9.43889 103.225 9.43889C101.361 9.43889 99.9545 10.1049 99.1553 11.6293V9.52769H96.7725V20.5391ZM109.486 14.989C109.486 18.3487 111.588 20.6427 114.77 20.6427C116.531 20.6427 117.848 19.9471 118.633 18.6595V20.5391H121.015V5.1764H118.633V11.4221C117.833 10.1493 116.501 9.42409 114.725 9.42409C111.617 9.42409 109.486 11.6737 109.486 14.989ZM111.869 15.0778C111.884 12.9614 113.275 11.4517 115.258 11.4517C117.256 11.4517 118.633 12.9466 118.633 15.0778C118.633 17.1647 117.256 18.6595 115.258 18.6595C113.245 18.6595 111.884 17.1647 111.869 15.0778ZM123.739 17.2239C123.739 19.1775 125.233 20.6427 127.616 20.6427C129.2 20.6427 130.473 20.1691 131.257 19.1923V20.5391H133.596L133.581 13.3166C133.551 10.8893 131.968 9.43889 129.126 9.43889C127.024 9.43889 125.914 9.9125 124.375 10.8301L125.352 12.4878C126.447 11.7329 127.542 11.3629 128.608 11.3629C130.34 11.3629 131.242 12.1918 131.242 13.583V13.9086H127.898C125.248 13.9382 123.739 15.2258 123.739 17.2239ZM125.974 17.1203C125.974 16.0694 126.699 15.655 128.253 15.655H131.242V16.6763C131.109 17.8751 129.807 18.7631 128.105 18.7631C126.788 18.7631 125.974 18.1267 125.974 17.1203ZM136.793 20.5391H139.175V14.7818C139.353 12.9022 140.774 11.5997 142.979 11.7181V9.43889C141.247 9.43889 139.915 10.2233 139.175 11.7181V9.52769H136.793V20.5391ZM145.096 20.5391H147.538V10.1493L155.278 20.5391H157.676V6.03481H155.278V16.469L147.508 6.03481H145.096V20.5391ZM160.325 15.0334C160.325 18.3487 162.664 20.6279 166.082 20.6279C169.486 20.6279 171.825 18.3487 171.825 15.0334C171.825 11.7033 169.486 9.43889 166.082 9.43889C162.664 9.43889 160.325 11.7033 160.325 15.0334ZM162.708 15.0482C162.708 12.9466 164.099 11.4961 166.082 11.4961C168.051 11.4961 169.442 12.9466 169.442 15.0482C169.442 17.1943 168.051 18.6447 166.082 18.6447C164.099 18.6447 162.708 17.1943 162.708 15.0482ZM173.201 11.7181H174.755V17.4311C174.755 19.6955 176.176 20.6427 177.834 20.6427C178.766 20.6427 179.684 20.3615 180.557 19.8435L179.95 18.0231C179.314 18.3339 178.796 18.4967 178.293 18.4967C177.553 18.4967 177.109 18.1415 177.109 17.0019V11.7181H180.365V9.9421H177.109V6.90803H174.755V9.9421H173.201V11.7181ZM182.54 6.37522C182.54 7.20404 183.147 7.79605 183.932 7.79605C184.716 7.79605 185.323 7.20404 185.323 6.37522C185.323 5.5168 184.716 4.92479 183.932 4.92479C183.147 4.92479 182.54 5.5168 182.54 6.37522ZM182.748 20.5391H185.116V9.52769H182.748V20.5391ZM187.632 11.7181H189.082V20.5391H191.45V11.7181H194.336V9.9421H191.45V8.62487C191.45 7.58885 192.131 7.14484 192.945 7.14484C193.433 7.14484 193.996 7.32244 194.455 7.66285L195.372 5.82761C194.662 5.3096 193.774 5.07279 192.886 5.07279C190.977 5.07279 189.082 6.28642 189.082 8.86168V9.9421H187.632V11.7181ZM195.535 6.37522C195.535 7.20404 196.127 7.79605 196.926 7.79605C197.711 7.79605 198.303 7.20404 198.303 6.37522C198.303 5.5168 197.711 4.92479 196.926 4.92479C196.127 4.92479 195.535 5.5168 195.535 6.37522ZM195.742 20.5391H198.096V9.52769H195.742V20.5391ZM200.582 15.0482C200.582 18.3635 202.832 20.6279 206.221 20.6279C208.13 20.6279 209.699 19.9471 210.779 18.7631L209.521 17.4163C208.707 18.2451 207.612 18.7039 206.413 18.7039C204.667 18.7039 203.364 17.6383 202.994 15.951H211.327C211.608 11.9697 210.039 9.43889 206.162 9.43889C202.891 9.45369 200.582 11.7181 200.582 15.0482ZM202.95 14.2046C203.216 12.4434 204.445 11.3481 206.176 11.3481C207.982 11.3481 209.166 12.4286 209.255 14.2046H202.95ZM213.813 20.5391H216.196V14.7818C216.374 12.9022 217.78 11.5997 220 11.7181V9.43889C218.268 9.43889 216.936 10.2233 216.196 11.7181V9.52769H213.813V20.5391Z" fill="white"/>
<path d="M20.0942 3.78803V5.35637C20.4839 5.75319 20.7022 6.28716 20.7021 6.84332C20.6958 7.40553 20.468 7.94258 20.0682 8.33791C19.6684 8.73325 19.1288 8.95498 18.5666 8.95498C18.0043 8.95498 17.4648 8.73325 17.065 8.33791C16.6652 7.94258 16.4374 7.40553 16.4311 6.84332C16.4311 6.26395 16.664 5.74046 17.0389 5.35637V3.78803H7.56152V5.35637C7.9512 5.75319 8.16947 6.28716 8.16936 6.84332C8.16939 7.12376 8.11419 7.40146 8.00689 7.66056C7.8996 7.91966 7.74231 8.15509 7.54403 8.3534C7.34574 8.55172 7.11033 8.70903 6.85124 8.81636C6.59215 8.92368 6.31446 8.97893 6.03402 8.97893C5.75363 8.97889 5.47599 8.92362 5.21696 8.81627C4.95793 8.70892 4.72259 8.55159 4.52437 8.35328C4.32615 8.15496 4.16895 7.91954 4.06173 7.66046C3.95451 7.40137 3.89938 7.12371 3.89948 6.84332C3.89948 6.26395 4.13182 5.74046 4.50624 5.35637V3.78803H0V29.5488H24.6007V3.78803H20.0942ZM22.6249 27.479H1.97633V10.0928H22.6249V27.479V27.479Z" fill="url(#paint0_linear)"/>
<path d="M18.3731 12.6848H20.8329V15.2375H18.3731V12.6848ZM14.7763 12.6848H17.2358V15.2375H14.7763V12.6848ZM11.179 12.6848H13.6377V15.2375H11.179V12.6848ZM18.3731 16.2431H20.8329V18.7959H18.3731V16.2431ZM14.7763 16.2431H17.2358V18.7959H14.7763V16.2431ZM11.179 16.2431H13.6377V18.7959H11.179V16.2431ZM7.5814 16.2431H10.0412V18.7959H7.5814V16.2431ZM3.98436 16.2431H6.44363V18.7959H3.98436V16.2431ZM18.3731 19.8012H20.8329V22.3545H18.3731V19.8012ZM14.7763 19.8012H17.2358V22.3545H14.7763V19.8012ZM11.179 19.8012H13.6377V22.3545H11.179V19.8012ZM7.5814 19.8012H10.0412V22.3545H7.5814V19.8012ZM3.98436 19.8012H6.44363V22.3545H3.98436V19.8012ZM14.7763 23.3607H17.2358V25.9129H14.7763V23.3607ZM11.179 23.3607H13.6377V25.9129H11.179V23.3607ZM7.5814 23.3607H10.0412V25.9129H7.5814V23.3607ZM3.98436 23.3607H6.44363V25.9129H3.98436V23.3607ZM18.6234 7.71706C18.8155 7.71699 18.9996 7.64068 19.1355 7.50491C19.2713 7.36913 19.3477 7.18498 19.3478 6.99293V0.71019C19.3441 0.520588 19.2663 0.339984 19.1309 0.207187C18.9955 0.0743909 18.8134 0 18.6238 0C18.4342 0 18.2521 0.0743909 18.1167 0.207187C17.9813 0.339984 17.9035 0.520588 17.8998 0.71019V6.99266C17.8997 7.08774 17.9184 7.18191 17.9547 7.26977C17.991 7.35764 18.0443 7.43749 18.1115 7.50476C18.1787 7.57203 18.2585 7.62541 18.3463 7.66183C18.4342 7.69826 18.5283 7.71703 18.6234 7.71706V7.71706ZM6.02086 7.71706C6.11596 7.7171 6.21014 7.69839 6.29801 7.66201C6.38589 7.62563 6.46573 7.5723 6.53298 7.50505C6.60023 7.4378 6.65356 7.35796 6.68994 7.27008C6.72632 7.18221 6.74503 7.08803 6.74499 6.99293V0.71019C6.73986 0.521622 6.66134 0.342502 6.52615 0.210944C6.39096 0.0793862 6.20976 0.00577558 6.02113 0.00577558C5.83249 0.00577558 5.6513 0.0793862 5.51611 0.210944C5.38091 0.342502 5.3024 0.521622 5.29726 0.71019V6.99266C5.29715 7.08775 5.31579 7.18193 5.35211 7.26981C5.38842 7.3577 5.44171 7.43756 5.50891 7.50484C5.57611 7.57212 5.65592 7.62549 5.74376 7.6619C5.83161 7.69832 5.92577 7.71706 6.02086 7.71706V7.71706Z" fill="url(#paint1_linear)"/>
<defs>
<linearGradient id="paint0_linear" x1="-1.60679" y1="3.43182" x2="20.6891" y2="13.8285" gradientUnits="userSpaceOnUse">
<stop stop-color="#EA1F59"/>
<stop offset="1" stop-color="#FA9169"/>
</linearGradient>
<linearGradient id="paint1_linear" x1="3.60516" y1="1.68256" x2="18.8751" y2="8.80304" gradientUnits="userSpaceOnUse">
<stop stop-color="#EA1F59"/>
<stop offset="1" stop-color="#FA9169"/>
</linearGradient>
</defs>
</svg>
